<svg width="77" height="37" viewBox="0 0 77 37" fill="none" xmlns="http://www.w3.org/2000/svg">
<path d="M0.75 18.5C0.75 8.69695 8.69695 0.75 18.5 0.75H58.5C68.303 0.75 76.25 8.69695 76.25 18.5C76.25 28.3031 68.3031 36.25 58.5 36.25H18.5C8.69695 36.25 0.75 28.3031 0.75 18.5Z" fill="white"/>
<path d="M0.75 18.5C0.75 8.69695 8.69695 0.75 18.5 0.75H58.5C68.303 0.75 76.25 8.69695 76.25 18.5C76.25 28.3031 68.3031 36.25 58.5 36.25H18.5C8.69695 36.25 0.75 28.3031 0.75 18.5Z" stroke="#1EC59C" stroke-width="1.5"/>
<path d="M21.86 13.1016L24.9908 20.7715H25.1139L28.2447 13.1016H30.0768V23H28.6412V15.8496H28.5455L25.6471 22.9863H24.4576L21.5455 15.8359H21.4635V23H20.0279V13.1016H21.86ZM31.7502 13.1016H37.9572V14.4004H33.2541V17.3945H37.6291V18.6797H33.2541V21.7012H38.0119V23H31.7502V13.1016ZM47.4373 23H46.0564L41.0389 15.7676H40.9568V23H39.4529V13.1016H40.8475L45.865 20.3477H45.9607V13.1016H47.4373V23ZM56.9721 13.1016V19.6094C56.9721 20.2975 56.808 20.9105 56.4799 21.4482C56.1563 21.986 55.696 22.4076 55.099 22.7129C54.5066 23.0137 53.823 23.1641 53.0482 23.1641C52.2644 23.1641 51.574 23.0137 50.977 22.7129C50.3799 22.4076 49.9197 21.986 49.5961 21.4482C49.2725 20.9105 49.1107 20.2975 49.1107 19.6094V13.1016H50.6146V19.4863C50.6146 19.9329 50.7126 20.3317 50.9086 20.6826C51.1046 21.029 51.3871 21.3024 51.7562 21.5029C52.1254 21.6989 52.5561 21.7969 53.0482 21.7969C53.5404 21.7969 53.9688 21.6989 54.3334 21.5029C54.698 21.3024 54.9783 21.029 55.1742 20.6826C55.3702 20.3317 55.4682 19.9329 55.4682 19.4863V13.1016H56.9721Z" fill="#1EC59C"/>
</svg>
