<svg width="55" height="51" viewBox="0 0 55 51" fill="none" xmlns="http://www.w3.org/2000/svg">
<path d="M53 2.00879L2 2.00879L2 48.1516L13.2597 37.1034L53 37.1034L53 2.00879Z" stroke="#1EC59C" stroke-width="4" stroke-linejoin="round"/>
<path d="M25.7811 23.7758V23.4861C25.7868 22.4917 25.8748 21.6991 26.0453 21.1082C26.2214 20.5173 26.4771 20.04 26.8123 19.6764C27.1475 19.3128 27.551 18.9832 28.0226 18.6878C28.3748 18.4605 28.6902 18.2247 28.9686 17.9804C29.247 17.7361 29.4686 17.4662 29.6333 17.1707C29.7981 16.8696 29.8805 16.5344 29.8805 16.165C29.8805 15.773 29.7868 15.4292 29.5993 15.1338C29.4118 14.8383 29.1589 14.6111 28.8407 14.452C28.5282 14.2929 28.1816 14.2133 27.801 14.2133C27.4316 14.2133 27.0822 14.2957 26.7527 14.4605C26.4231 14.6196 26.1532 14.8582 25.943 15.1764C25.7328 15.4889 25.6191 15.8781 25.6021 16.344H22.1248C22.1532 15.2077 22.426 14.2702 22.943 13.5315C23.46 12.7872 24.1447 12.2332 24.997 11.8696C25.8493 11.5003 26.7896 11.3156 27.818 11.3156C28.9487 11.3156 29.9487 11.5031 30.818 11.8781C31.6873 12.2474 32.3691 12.7844 32.8635 13.4889C33.3578 14.1934 33.6049 15.0429 33.6049 16.0372C33.6049 16.702 33.4941 17.2929 33.2726 17.8099C33.0566 18.3213 32.7527 18.7758 32.3606 19.1736C31.9686 19.5656 31.5055 19.9207 30.9714 20.2389C30.5226 20.5059 30.1532 20.7844 29.8635 21.0741C29.5794 21.3639 29.3663 21.6991 29.2243 22.0798C29.0879 22.4605 29.0169 22.9292 29.0112 23.4861V23.7758H25.7811ZM27.4686 29.2304C26.9004 29.2304 26.4146 29.0315 26.0112 28.6338C25.6135 28.2304 25.4174 27.7474 25.4231 27.1849C25.4174 26.6281 25.6135 26.1508 26.0112 25.7531C26.4146 25.3554 26.9004 25.1565 27.4686 25.1565C28.0083 25.1565 28.4828 25.3554 28.8919 25.7531C29.301 26.1508 29.5083 26.6281 29.514 27.1849C29.5083 27.5599 29.4089 27.9037 29.2157 28.2162C29.0282 28.523 28.7811 28.7702 28.4743 28.9577C28.1674 29.1395 27.8322 29.2304 27.4686 29.2304Z" fill="#1EC59C"/>
</svg>
