<svg width="91" height="84" viewBox="0 0 91 84" fill="none" xmlns="http://www.w3.org/2000/svg">
<g clip-path="url(#clip0_1506_3470)">
<path d="M17.9448 52.0737C18.2461 51.7659 18.5571 51.4727 18.883 51.1894C19.3768 50.7644 19.8706 50.3344 20.3595 49.8996C24.3048 46.3968 27.3564 42.1709 30.2994 37.8522C31.4104 36.2205 32.5017 34.5154 33.8942 33.1378C36.3532 30.6999 39.3554 29.2001 42.891 28.7506C47.7597 28.1351 52.0161 29.4639 55.7541 32.4978C57.8033 34.1637 59.1563 36.4061 60.6426 38.5508C62.3363 40.9984 64.0695 43.446 66.0397 45.6737C68.2074 48.1311 70.6714 50.3296 72.9972 52.655C75.4217 55.0831 76.9919 57.9899 77.6634 61.3218C77.9795 62.8851 78.2362 64.5119 78.172 66.0948C78.0042 70.1253 76.7055 73.7845 74.1526 77.004C71.7973 79.9743 68.7901 82.0262 65.22 83.1401C62.282 84.0536 59.2057 84.3077 56.1294 83.5505C54.7715 83.2182 53.4234 82.8567 52.0556 82.5734C48.2387 81.777 44.3378 81.1517 40.4665 82.0018C38.2197 82.4952 36.0026 83.0961 33.751 83.5651C31.2968 84.0781 28.818 84.122 26.359 83.5309C22.6309 82.632 19.4509 80.7804 16.9079 77.9518C14.4686 75.2355 12.8243 72.1039 12.3601 68.4398C12.2416 67.5214 12.0342 66.598 12.0391 65.6796C12.0688 61.6296 13.2045 57.9069 15.6191 54.5994C15.6191 54.5994 15.624 54.5897 15.629 54.5848C16.2018 53.8031 16.8733 53.0898 17.5794 52.4254C17.7424 52.2691 17.8609 52.1567 17.9399 52.0737H17.9448Z" fill="#1EC59C"/>
<path d="M33.4213 28.2016C39.1491 26.9618 42.4053 19.6833 40.6941 11.9446C38.983 4.20583 32.9525 -1.06264 27.2247 0.177112C21.4968 1.41686 18.2407 8.69536 19.9518 16.4341C21.663 24.1728 27.6935 29.4413 33.4213 28.2016Z" fill="#1EC59C"/>
<path d="M16.1864 46.685C21.1528 44.4478 22.6752 37.1937 19.5868 30.4826C16.4984 23.7714 9.96863 20.1446 5.00223 22.3818C0.0358287 24.619 -1.48657 31.8731 1.60185 38.5842C4.69027 45.2954 11.22 48.9222 16.1864 46.685Z" fill="#1EC59C"/>
<path d="M89.4071 38.5858C92.4955 31.8746 90.9731 24.6205 86.0067 22.3833C81.0403 20.1461 74.5106 23.773 71.4222 30.4841C68.3337 37.1953 69.8561 44.4494 74.8225 46.6866C79.7889 48.9238 86.3187 45.2969 89.4071 38.5858Z" fill="#1EC59C"/>
<path d="M70.5515 16.4392C72.2627 8.70048 69.0065 1.42198 63.2787 0.182231C57.5509 -1.05752 51.5204 4.21096 49.8093 11.9497C48.0981 19.6884 51.3543 26.9669 57.0821 28.2067C62.8099 29.4464 68.8404 24.178 70.5515 16.4392Z" fill="#1EC59C"/>
<path d="M55.6256 55.1764H49.2064V48.3368C49.2064 46.4559 47.6509 44.917 45.7499 44.917H45.2561C43.355 44.917 41.7996 46.4559 41.7996 48.3368V55.1764H35.3803C33.4793 55.1764 31.9238 56.7153 31.9238 58.5962V59.0847C31.9238 60.9656 33.4793 62.5045 35.3803 62.5045H41.7996V69.3441C41.7996 71.225 43.355 72.7639 45.2561 72.7639H45.7499C47.6509 72.7639 49.2064 71.225 49.2064 69.3441V62.5045H55.6256C57.5267 62.5045 59.0821 60.9656 59.0821 59.0847V58.5962C59.0821 56.7153 57.5267 55.1764 55.6256 55.1764Z" fill="white"/>
</g>
<defs>
<clipPath id="clip0_1506_3470">
<rect width="91" height="84" fill="white"/>
</clipPath>
</defs>
</svg>
