<svg width="56" height="55" viewBox="0 0 56 55" fill="none" xmlns="http://www.w3.org/2000/svg">
<path d="M39.5789 2L2 2L2 36L10.2967 27.8592L39.5789 27.8592L39.5789 2Z" stroke="#1EC59C" stroke-width="4" stroke-linejoin="round"/>
<path fill-rule="evenodd" clip-rule="evenodd" d="M12.7383 35.9995V43.359H44.1122L53.0014 52.9995V12.7363H46.7383V35.9995H12.7383Z" fill="#1EC59C"/>
<path d="M12.7383 43.359H10.7383C10.7383 44.4636 11.6337 45.359 12.7383 45.359V43.359ZM12.7383 35.9995V33.9995C11.6337 33.9995 10.7383 34.8949 10.7383 35.9995H12.7383ZM44.1122 43.359L45.5825 42.0032C45.2039 41.5926 44.6707 41.359 44.1122 41.359V43.359ZM53.0014 52.9995L51.5311 54.3553C52.0895 54.9608 52.962 55.1621 53.7292 54.8624C54.4964 54.5626 55.0014 53.8232 55.0014 52.9995H53.0014ZM53.0014 12.7363H55.0014C55.0014 11.6318 54.106 10.7363 53.0014 10.7363V12.7363ZM46.7383 12.7363V10.7363C45.6337 10.7363 44.7383 11.6318 44.7383 12.7363H46.7383ZM46.7383 35.9995V37.9995C47.8428 37.9995 48.7383 37.1041 48.7383 35.9995H46.7383ZM14.7383 43.359V35.9995H10.7383V43.359H14.7383ZM44.1122 41.359H12.7383V45.359H44.1122V41.359ZM54.4718 51.6437L45.5825 42.0032L42.6418 44.7148L51.5311 54.3553L54.4718 51.6437ZM51.0014 12.7363V52.9995H55.0014V12.7363H51.0014ZM46.7383 14.7363H53.0014V10.7363H46.7383V14.7363ZM44.7383 12.7363V35.9995H48.7383V12.7363H44.7383ZM46.7383 33.9995H12.7383V37.9995H46.7383V33.9995Z" fill="#1EC59C"/>
</svg>
