<svg width="71" height="72" viewBox="0 0 71 72" fill="none" xmlns="http://www.w3.org/2000/svg">
<path d="M25.1465 23.6755H15.834C13.9484 23.6755 13.0056 23.6755 12.4198 24.2612C11.834 24.847 11.834 25.7898 11.834 27.6755V53.6963C11.834 55.5819 11.834 56.5247 12.4198 57.1105C13.0056 57.6963 13.9484 57.6963 15.834 57.6963H55.1673C57.0529 57.6963 57.9957 57.6963 58.5815 57.1105C59.1673 56.5247 59.1673 55.5819 59.1673 53.6963V27.6755C59.1673 25.7898 59.1673 24.847 58.5815 24.2612C57.9957 23.6755 57.0529 23.6755 55.1673 23.6755H45.8548M25.1465 23.6755V16.3213C25.1465 14.9071 25.1465 14.2 25.5858 13.7606C26.0252 13.3213 26.7323 13.3213 28.1465 13.3213H42.8548C44.269 13.3213 44.9761 13.3213 45.4155 13.7606C45.8548 14.2 45.8548 14.9071 45.8548 16.3213V23.6755M25.1465 23.6755H45.8548" stroke="#1EC59C" stroke-width="3.5"/>
<path d="M32.3408 32.441C32.1719 32.8487 32.1719 33.3656 32.1719 34.3994V36.5117C32.1719 36.5619 32.1719 36.587 32.1563 36.6026C32.1407 36.6182 32.1156 36.6182 32.0654 36.6182H29.9531C28.9193 36.6182 28.4024 36.6182 27.9947 36.7871C27.451 37.0122 27.0191 37.4442 26.7939 37.9878C26.625 38.3956 26.625 38.9125 26.625 39.9463C26.625 40.9801 26.625 41.497 26.7939 41.9047C27.0191 42.4484 27.451 42.8803 27.9947 43.1055C28.4024 43.2744 28.9193 43.2744 29.9531 43.2744H32.0654C32.1156 43.2744 32.1407 43.2744 32.1563 43.29C32.1719 43.3056 32.1719 43.3307 32.1719 43.3809V45.4932C32.1719 46.527 32.1719 47.0439 32.3408 47.4516C32.566 47.9953 32.9979 48.4272 33.5415 48.6524C33.9493 48.8213 34.4662 48.8213 35.5 48.8213C36.5338 48.8213 37.0507 48.8213 37.4585 48.6524C38.0021 48.4272 38.434 47.9953 38.6592 47.4516C38.8281 47.0439 38.8281 46.527 38.8281 45.4932V43.3809C38.8281 43.3307 38.8281 43.3056 38.8437 43.29C38.8593 43.2744 38.8844 43.2744 38.9346 43.2744H41.0469C42.0807 43.2744 42.5976 43.2744 43.0053 43.1055C43.549 42.8803 43.9809 42.4484 44.2061 41.9047C44.375 41.497 44.375 40.9801 44.375 39.9463C44.375 38.9125 44.375 38.3956 44.2061 37.9878C43.9809 37.4442 43.549 37.0122 43.0053 36.7871C42.5976 36.6182 42.0807 36.6182 41.0469 36.6182H38.9346C38.8844 36.6182 38.8593 36.6182 38.8437 36.6026C38.8281 36.587 38.8281 36.5619 38.8281 36.5117V34.3994C38.8281 33.3656 38.8281 32.8487 38.6592 32.441C38.434 31.8973 38.0021 31.4654 37.4585 31.2402C37.0507 31.0713 36.5338 31.0713 35.5 31.0713C34.4662 31.0713 33.9493 31.0713 33.5415 31.2402C32.9979 31.4654 32.566 31.8973 32.3408 32.441Z" fill="#1EC59C"/>
</svg>
