<svg width="85" height="79" viewBox="0 0 85 79" fill="none" xmlns="http://www.w3.org/2000/svg">
<g id="_?&#235;&#141;&#137;&#236;&#148;&#160;??1" clip-path="url(#clip0_1506_3364)">
<path id="Vector" d="M16.7605 48.9745C17.0419 48.685 17.3325 48.4093 17.6369 48.1428C18.0981 47.7431 18.5593 47.3388 19.0159 46.9299C22.7012 43.6355 25.5516 39.6612 28.3005 35.5995C29.3383 34.0649 30.3576 32.4614 31.6582 31.1657C33.9552 28.873 36.7594 27.4624 40.0618 27.0397C44.6096 26.4608 48.5854 27.7105 52.0769 30.5638C53.991 32.1306 55.2548 34.2395 56.6431 36.2566C58.2251 38.5585 59.844 40.8604 61.6843 42.9555C63.7091 45.2666 66.0106 47.3342 68.183 49.5212C70.4477 51.8048 71.9144 54.5386 72.5416 57.6721C72.8368 59.1424 73.0767 60.6724 73.0167 62.161C72.8599 65.9516 71.6469 69.393 69.2623 72.4208C67.0622 75.2144 64.2533 77.1441 60.9187 78.1917C58.1743 79.0509 55.3009 79.2898 52.4274 78.5777C51.159 78.2652 49.8999 77.9252 48.6223 77.6587C45.057 76.9098 41.4132 76.3217 37.7972 77.1212C35.6986 77.5852 33.6277 78.1503 31.5245 78.5914C29.2322 79.0739 26.9168 79.1152 24.6199 78.5593C21.1376 77.7139 18.1673 75.9725 15.7919 73.3122C13.5135 70.7576 11.9776 67.8124 11.544 64.3665C11.4333 63.5027 11.2396 62.6343 11.2442 61.7705C11.2719 57.9616 12.3327 54.4605 14.5881 51.3499C14.5881 51.3499 14.5927 51.3407 14.5974 51.3361C15.1324 50.601 15.7597 49.9302 16.4192 49.3053C16.5714 49.1583 16.6821 49.0526 16.7559 48.9745H16.7605Z" fill="#1EC59C"/>
<path id="Vector_2" d="M31.2176 26.5235C36.5677 25.3575 39.6092 18.5123 38.0109 11.2342C36.4126 3.95609 30.7797 -0.99878 25.4295 0.167174C20.0794 1.33313 17.0379 8.17838 18.6362 15.4565C20.2345 22.7346 25.8674 27.6894 31.2176 26.5235Z" fill="#1EC59C"/>
<path id="Vector_3" d="M15.1178 43.9063C19.7567 41.8022 21.1788 34.9799 18.294 28.6683C15.4092 22.3566 9.30998 18.9456 4.67104 21.0497C0.0320926 23.1537 -1.38993 29.976 1.49486 36.2877C4.37965 42.5994 10.4788 46.0103 15.1178 43.9063Z" fill="#1EC59C"/>
<path id="Vector_4" d="M83.5127 36.2897C86.3975 29.9781 84.9755 23.1558 80.3365 21.0517C75.6976 18.9477 69.5984 22.3587 66.7136 28.6703C63.8288 34.982 65.2508 41.8043 69.8898 43.9083C74.5287 46.0124 80.6279 42.6014 83.5127 36.2897Z" fill="#1EC59C"/>
<path id="Vector_5" d="M65.8996 15.4601C67.4979 8.18205 64.4564 1.33679 59.1063 0.170837C53.7561 -0.995117 48.1232 3.95976 46.5249 11.2379C44.9266 18.516 47.968 25.3612 53.3182 26.5272C58.6684 27.6931 64.3012 22.7382 65.8996 15.4601Z" fill="#1EC59C"/>
<path id="Vector_6" d="M51.9574 51.8919H45.9614V45.4594C45.9614 43.6905 44.5085 42.2432 42.7328 42.2432H42.2716C40.4958 42.2432 39.043 43.6905 39.043 45.4594V51.8919H33.047C31.2712 51.8919 29.8184 53.3392 29.8184 55.1081V55.5676C29.8184 57.3365 31.2712 58.7838 33.047 58.7838H39.043V65.2163C39.043 66.9852 40.4958 68.4325 42.2716 68.4325H42.7328C44.5085 68.4325 45.9614 66.9852 45.9614 65.2163V58.7838H51.9574C53.7331 58.7838 55.186 57.3365 55.186 55.5676V55.1081C55.186 53.3392 53.7331 51.8919 51.9574 51.8919Z" fill="white"/>
</g>
<defs>
<clipPath id="clip0_1506_3364">
<rect width="85" height="79" fill="white"/>
</clipPath>
</defs>
</svg>
