<svg width="199" height="206" viewBox="0 0 199 206" fill="none" xmlns="http://www.w3.org/2000/svg">
<path d="M14.4258 138.492H17.043V139.781H14.4258V145.992H12.9023V133.238H14.4258V138.492ZM1.59375 134.488H3.09766V137.418H8.15625V134.488H9.67969V143.062H1.59375V134.488ZM8.15625 141.812V138.629H3.09766V141.812H8.15625ZM3.56641 144.742H5.07031V148.922H15.2266V150.211H3.56641V144.742ZM32.0117 150.621H30.4883V143.219H26.875V141.93H30.4883V138.473H27.0117V137.184H30.4883V133.219H32.0117V150.621ZM18.2422 134.801H25.8789V140.973H19.8242V145.25C21.2305 145.25 22.5033 145.214 23.6426 145.143C24.7819 145.071 25.9766 144.938 27.2266 144.742L27.3633 146.031C26.0482 146.233 24.7982 146.373 23.6133 146.451C22.4284 146.523 21.0872 146.559 19.5898 146.559H18.3008V139.723H24.375V136.07H18.2422V134.801ZM50.2617 143.043H34.4219V141.812H41.5898V139.781H36.4336V134.039H48.2891V135.27H37.9375V138.531H48.4062V139.781H43.0742V141.812H50.2617V143.043ZM36.3359 147.438C36.3359 146.78 36.5736 146.22 37.0488 145.758C37.5241 145.289 38.2109 144.931 39.1094 144.684C40.0078 144.436 41.082 144.312 42.332 144.312C43.569 144.312 44.6335 144.436 45.5254 144.684C46.4173 144.931 47.1009 145.289 47.5762 145.758C48.0579 146.22 48.3021 146.78 48.3086 147.438C48.3021 148.102 48.0612 148.665 47.5859 149.127C47.1107 149.596 46.4238 149.954 45.5254 150.201C44.6335 150.449 43.569 150.576 42.332 150.582C41.082 150.576 40.0078 150.449 39.1094 150.201C38.2109 149.954 37.5241 149.596 37.0488 149.127C36.5736 148.658 36.3359 148.095 36.3359 147.438ZM37.8984 147.438C37.8919 147.835 38.0612 148.18 38.4062 148.473C38.7578 148.759 39.2624 148.977 39.9199 149.127C40.5775 149.277 41.362 149.352 42.2734 149.352C43.6797 149.352 44.7767 149.186 45.5645 148.854C46.3587 148.521 46.7591 148.049 46.7656 147.438C46.7656 147.04 46.5866 146.699 46.2285 146.412C45.8704 146.126 45.3594 145.908 44.6953 145.758C44.0312 145.602 43.2435 145.523 42.332 145.523C41.4076 145.523 40.61 145.602 39.9395 145.758C39.2754 145.908 38.7676 146.126 38.416 146.412C38.0645 146.699 37.8919 147.04 37.8984 147.438ZM67.0273 141.812H59.8594V143.531H64.9961V147.418H54.6836V149.176H65.5234V150.387H53.1602V146.266H63.4922V144.723H53.1211V143.531H58.3359V141.812H51.207V140.562H67.0273V141.812ZM53.2578 133.805H64.9766V139.098H53.2578V133.805ZM63.4531 137.867V135.035H54.7812V137.867H63.4531ZM72.1602 149L77.3359 134.859H79.1914L84.3672 149H82.5117L81.0957 145.016H75.4121L73.9961 149H72.1602ZM80.5586 143.473L78.3125 137.145H78.1953L75.9492 143.473H80.5586ZM87.5391 149H85.7812V134.859H87.5391V149ZM101.109 139.781H103.746V133.59H105.211V149.703H103.746V141.051H101.109V145.914H94.4688V135.25H101.109V139.781ZM99.6641 144.684V136.48H95.9141V144.684H99.6641ZM107.223 133.219H108.707V150.582H107.223V133.219ZM124.926 150.621H123.383V133.219H124.926V150.621ZM111.742 134.879H120.004V136.168H113.285V144.977C115.089 144.977 116.596 144.938 117.807 144.859C119.018 144.781 120.245 144.632 121.488 144.41L121.645 145.699C120.349 145.927 119.07 146.083 117.807 146.168C116.55 146.253 114.997 146.298 113.148 146.305H111.742V134.879ZM136.379 134.078C136.372 136.279 135.718 138.105 134.416 139.557C133.12 141.002 131.138 142.079 128.469 142.789L127.902 141.578C130.708 140.862 132.655 139.723 133.742 138.16L128.078 138.57L127.824 137.34L134.348 137.047C134.562 136.533 134.699 135.953 134.758 135.309H128.703V134.078H136.379ZM130.539 143.004H141.789V147.164H132.082V149.117H142.375V150.348H130.578V146.012H140.266V144.234H130.539V143.004ZM136.438 137.418H140.246V133.219H141.789V142.223H140.246V138.688H136.438V137.418ZM163.016 134.977H160.34V138.336H162.957V139.527H150.242V138.336H152.859V134.977H150.184V133.766H163.016V134.977ZM148.699 140.992H164.52V142.223H148.699V140.992ZM150.613 143.785H162.488V147.555H152.176V149.215H163.016V150.387H150.652V146.441H160.984V144.938H150.613V143.785ZM158.816 138.336V134.977H154.383V138.336H158.816ZM180.23 145.074H178.766V139.059H176.324V143.57H174.898V133.57H176.324V137.789H178.766V133.238H180.23V145.074ZM166.246 134.586H172.828V139.449H167.77V142.047C168.98 142.047 170.055 142.011 170.992 141.939C171.93 141.861 172.887 141.721 173.863 141.52L174.039 142.75C172.984 142.958 171.965 143.098 170.982 143.17C169.999 143.242 168.811 143.277 167.418 143.277H166.285V138.277H171.363V135.855H166.246V134.586ZM167.691 149.312C168.72 149.156 169.69 148.857 170.602 148.414C171.513 147.971 172.249 147.428 172.809 146.783C173.375 146.132 173.661 145.439 173.668 144.703V144.254H175.191V144.703C175.191 145.439 175.471 146.132 176.031 146.783C176.591 147.428 177.33 147.971 178.248 148.414C179.166 148.857 180.139 149.156 181.168 149.312L180.543 150.504C179.671 150.361 178.831 150.117 178.023 149.771C177.223 149.433 176.51 149.01 175.885 148.502C175.26 147.994 174.775 147.424 174.43 146.793C174.085 147.424 173.596 147.994 172.965 148.502C172.34 149.01 171.624 149.433 170.816 149.771C170.016 150.117 169.182 150.361 168.316 150.504L167.691 149.312ZM198.09 143.238H182.27V141.988H189.398V139.977H183.812V138.707H186.43V135.055H183.754V133.785H196.586V135.055H193.91V138.707H196.527V139.977H190.922V141.988H198.09V143.238ZM184.203 144.918H196.156V150.348H184.203V144.918ZM194.652 149.098V146.109H185.727V149.098H194.652ZM192.387 138.707V135.055H187.953V138.707H192.387Z" fill="black"/>
<path d="M96.5831 163.6V188.8H91.5831V163.6H96.5831ZM81.2631 173.28H84.6231V164.36H89.5431V185.48H84.6231V177.48H81.2631V173.28ZM72.3431 170.56V180.44C73.2231 180.4 74.1831 180.4 75.0631 180.36V170.56H72.3431ZM82.7431 179.8L83.0231 183.64C77.3831 184.72 69.9831 184.84 65.2631 184.84L64.7431 180.52H67.6231V170.56H65.3431V166.36H82.1831V170.56H79.7831V180.08C80.8231 180 81.7831 179.92 82.7431 179.8ZM86.5431 186.92V187.92C86.5431 191.52 90.2631 195.32 98.2631 196.24L96.3431 200.32C90.3831 199.56 86.1431 197.2 83.9031 193.88C81.6231 197.2 77.3431 199.56 71.3831 200.32L69.4631 196.24C77.4631 195.32 81.2231 191.52 81.2231 187.92V186.92H86.5431ZM104.3 193.64V189.48H129.82V200.48H124.54V193.64H104.3ZM119.86 183.12H133.9V187.32H100.58V183.12H114.58V180.48H104.74V164.48H130.1V168.48H109.98V170.48H129.22V174.32H109.98V176.48H130.38V180.48H119.86V183.12Z" fill="black"/>
<g clip-path="url(#clip0_2281_3408)">
<path d="M63.2674 68.1917C63.658 67.7887 64.0614 67.4048 64.484 67.0338C65.1243 66.4772 65.7646 65.9142 66.3985 65.3448C71.5144 60.7578 75.4714 55.2238 79.2876 49.5684C80.7283 47.4316 82.1433 45.1988 83.949 43.3947C87.1376 40.2023 91.0306 38.2383 95.6151 37.6497C101.928 36.8436 107.448 38.5837 112.295 42.5566C114.952 44.7382 116.706 47.6747 118.634 50.4832C120.83 53.6884 123.077 56.8936 125.632 59.8109C128.443 63.0289 131.638 65.9078 134.654 68.9531C137.798 72.1326 139.834 75.9392 140.705 80.3024C141.115 82.3496 141.447 84.48 141.364 86.5528C141.147 91.8308 139.463 96.6226 136.152 100.839C133.098 104.728 129.199 107.415 124.569 108.874C120.76 110.07 116.77 110.403 112.781 109.411C111.021 108.976 109.273 108.503 107.499 108.132C102.55 107.089 97.4912 106.27 92.4713 107.383C89.5579 108.029 86.683 108.816 83.7633 109.431C80.581 110.102 77.3667 110.16 74.178 109.386C69.3438 108.209 65.2203 105.784 61.9228 102.08C58.7597 98.5227 56.6276 94.4218 56.0257 89.6236C55.872 88.4209 55.6031 87.2117 55.6095 86.009C55.6479 80.7054 57.1206 75.8305 60.2516 71.4993C60.2516 71.4993 60.258 71.4865 60.2644 71.4801C61.0072 70.4565 61.878 69.5224 62.7936 68.6524C63.0049 68.4476 63.1586 68.3005 63.261 68.1917H63.2674Z" fill="#1EC59C"/>
<path d="M83.337 36.931C90.7643 35.3075 94.9866 25.7761 92.7677 15.6421C90.5489 5.50801 82.7291 -1.39118 75.3018 0.232304C67.8745 1.85578 63.6523 11.3872 65.8711 21.5212C68.09 31.6553 75.9097 38.5545 83.337 36.931Z" fill="#1EC59C"/>
<path d="M60.9873 61.1353C67.4273 58.2056 69.4014 48.7062 65.3966 39.9178C61.3918 31.1294 52.9247 26.3799 46.4848 29.3096C40.0448 32.2393 38.0707 41.7387 42.0755 50.5271C46.0803 59.3155 54.5474 64.0649 60.9873 61.1353Z" fill="#1EC59C"/>
<path d="M155.934 50.5295C159.938 41.7411 157.964 32.2417 151.524 29.312C145.084 26.3823 136.617 31.1318 132.613 39.9202C128.608 48.7086 130.582 58.208 137.022 61.1377C143.462 64.0673 151.929 59.3179 155.934 50.5295Z" fill="#1EC59C"/>
<path d="M131.484 21.5269C133.703 11.3928 129.481 1.86144 122.054 0.237961C114.627 -1.38552 106.807 5.51367 104.588 15.6477C102.369 25.7818 106.591 35.3132 114.019 36.9366C121.446 38.5601 129.266 31.6609 131.484 21.5269Z" fill="#1EC59C"/>
<path d="M112.129 72.2543H103.805V63.2976C103.805 60.8346 101.788 58.8193 99.3228 58.8193H98.6825C96.2174 58.8193 94.2004 60.8346 94.2004 63.2976V72.2543H85.8766C83.4115 72.2543 81.3945 74.2695 81.3945 76.7326V77.3723C81.3945 79.8354 83.4115 81.8506 85.8766 81.8506H94.2004V90.8072C94.2004 93.2703 96.2174 95.2855 98.6825 95.2855H99.3228C101.788 95.2855 103.805 93.2703 103.805 90.8072V81.8506H112.129C114.594 81.8506 116.611 79.8354 116.611 77.3723V76.7326C116.611 74.2695 114.594 72.2543 112.129 72.2543Z" fill="white"/>
</g>
<defs>
<clipPath id="clip0_2281_3408">
<rect width="118" height="110" fill="white" transform="translate(40)"/>
</clipPath>
</defs>
</svg>
