<svg width="45" height="42" viewBox="0 0 45 42" fill="none" xmlns="http://www.w3.org/2000/svg">
<g id="_?&#235;&#141;&#137;&#236;&#148;&#160;??1" clip-path="url(#clip0_1506_3371)">
<path id="Vector" d="M8.87357 26.0368C9.02252 25.8829 9.17635 25.7364 9.33751 25.5947C9.58169 25.3822 9.82587 25.1672 10.0676 24.9498C12.0186 23.1984 13.5276 21.0855 14.983 18.9261C15.5324 18.1102 16.072 17.2577 16.7606 16.5689C17.9766 15.35 19.4612 14.6 21.2096 14.3753C23.6172 14.0675 25.722 14.732 27.5705 16.2489C28.5838 17.0818 29.2529 18.2031 29.9878 19.2754C30.8254 20.4992 31.6825 21.723 32.6567 22.8369C33.7287 24.0656 34.9471 25.1648 36.0972 26.3275C37.2962 27.5415 38.0727 28.995 38.4047 30.6609C38.561 31.4426 38.688 32.256 38.6562 33.0474C38.5732 35.0626 37.931 36.8922 36.6686 38.502C35.5039 39.9872 34.0168 41.0131 32.2514 41.57C30.7985 42.0268 29.2773 42.1538 27.756 41.7752C27.0845 41.6091 26.4179 41.4284 25.7415 41.2867C23.854 40.8885 21.925 40.5759 20.0106 41.0009C18.8996 41.2476 17.8032 41.5481 16.6898 41.7826C15.4762 42.039 14.2504 42.061 13.0344 41.7655C11.1908 41.316 9.61832 40.3902 8.36079 38.9759C7.15454 37.6177 6.34142 36.0519 6.11189 34.2199C6.05328 33.7607 5.95073 33.299 5.95317 32.8398C5.96782 30.8148 6.52943 28.9534 7.72348 27.2997C7.72348 27.2997 7.72592 27.2948 7.72836 27.2924C8.01161 26.9016 8.34369 26.5449 8.69287 26.2127C8.77345 26.1345 8.83206 26.0784 8.87112 26.0368H8.87357Z" fill="#1EC59C"/>
<path id="Vector_2" d="M16.5268 14.1008C19.3593 13.4809 20.9695 9.84165 20.1233 5.97228C19.2771 2.10292 16.295 -0.531318 13.4626 0.0885558C10.6301 0.70843 9.01994 4.34768 9.86612 8.21705C10.7123 12.0864 13.6944 14.7207 16.5268 14.1008Z" fill="#1EC59C"/>
<path id="Vector_3" d="M8.0048 23.343C10.4607 22.2244 11.2135 18.5974 9.6863 15.2418C8.15906 11.8862 4.93008 10.0728 2.47417 11.1914C0.018254 12.31 -0.734583 15.937 0.792659 19.2926C2.3199 22.6482 5.54888 24.4616 8.0048 23.343Z" fill="#1EC59C"/>
<path id="Vector_4" d="M44.2117 19.2934C45.7389 15.9378 44.9861 12.3108 42.5302 11.1922C40.0743 10.0736 36.8453 11.887 35.318 15.2426C33.7908 18.5981 34.5436 22.2252 36.9996 23.3438C39.4555 24.4624 42.6845 22.649 44.2117 19.2934Z" fill="#1EC59C"/>
<path id="Vector_5" d="M34.8889 8.21912C35.7351 4.34975 34.1249 0.710501 31.2925 0.0906269C28.46 -0.529247 25.4779 2.10499 24.6317 5.97436C23.7856 9.84373 25.3958 13.483 28.2282 14.1029C31.0606 14.7227 34.0427 12.0885 34.8889 8.21912Z" fill="#1EC59C"/>
<path id="Vector_6" d="M27.5078 27.5877H24.3334V24.1679C24.3334 23.2275 23.5643 22.458 22.6242 22.458H22.38C21.4399 22.458 20.6707 23.2275 20.6707 24.1679V27.5877H17.4964C16.5563 27.5877 15.7871 28.3572 15.7871 29.2976V29.5419C15.7871 30.4823 16.5563 31.2518 17.4964 31.2518H20.6707V34.6716C20.6707 35.612 21.4399 36.3815 22.38 36.3815H22.6242C23.5643 36.3815 24.3334 35.612 24.3334 34.6716V31.2518H27.5078C28.4479 31.2518 29.217 30.4823 29.217 29.5419V29.2976C29.217 28.3572 28.4479 27.5877 27.5078 27.5877Z" fill="white"/>
</g>
<defs>
<clipPath id="clip0_1506_3371">
<rect width="45" height="42" fill="white"/>
</clipPath>
</defs>
</svg>
