<svg width="199" height="183" viewBox="0 0 199 183" fill="none" xmlns="http://www.w3.org/2000/svg">
<path d="M14.4258 103.492H17.043V104.781H14.4258V110.992H12.9023V98.2383H14.4258V103.492ZM1.59375 99.4883H3.09766V102.418H8.15625V99.4883H9.67969V108.062H1.59375V99.4883ZM8.15625 106.812V103.629H3.09766V106.812H8.15625ZM3.56641 109.742H5.07031V113.922H15.2266V115.211H3.56641V109.742ZM32.0117 115.621H30.4883V108.219H26.875V106.93H30.4883V103.473H27.0117V102.184H30.4883V98.2188H32.0117V115.621ZM18.2422 99.8008H25.8789V105.973H19.8242V110.25C21.2305 110.25 22.5033 110.214 23.6426 110.143C24.7819 110.071 25.9766 109.938 27.2266 109.742L27.3633 111.031C26.0482 111.233 24.7982 111.373 23.6133 111.451C22.4284 111.523 21.0872 111.559 19.5898 111.559H18.3008V104.723H24.375V101.07H18.2422V99.8008ZM50.2617 108.043H34.4219V106.812H41.5898V104.781H36.4336V99.0391H48.2891V100.27H37.9375V103.531H48.4062V104.781H43.0742V106.812H50.2617V108.043ZM36.3359 112.438C36.3359 111.78 36.5736 111.22 37.0488 110.758C37.5241 110.289 38.2109 109.931 39.1094 109.684C40.0078 109.436 41.082 109.312 42.332 109.312C43.569 109.312 44.6335 109.436 45.5254 109.684C46.4173 109.931 47.1009 110.289 47.5762 110.758C48.0579 111.22 48.3021 111.78 48.3086 112.438C48.3021 113.102 48.0612 113.665 47.5859 114.127C47.1107 114.596 46.4238 114.954 45.5254 115.201C44.6335 115.449 43.569 115.576 42.332 115.582C41.082 115.576 40.0078 115.449 39.1094 115.201C38.2109 114.954 37.5241 114.596 37.0488 114.127C36.5736 113.658 36.3359 113.095 36.3359 112.438ZM37.8984 112.438C37.8919 112.835 38.0612 113.18 38.4062 113.473C38.7578 113.759 39.2624 113.977 39.9199 114.127C40.5775 114.277 41.362 114.352 42.2734 114.352C43.6797 114.352 44.7767 114.186 45.5645 113.854C46.3587 113.521 46.7591 113.049 46.7656 112.438C46.7656 112.04 46.5866 111.699 46.2285 111.412C45.8704 111.126 45.3594 110.908 44.6953 110.758C44.0312 110.602 43.2435 110.523 42.332 110.523C41.4076 110.523 40.61 110.602 39.9395 110.758C39.2754 110.908 38.7676 111.126 38.416 111.412C38.0645 111.699 37.8919 112.04 37.8984 112.438ZM67.0273 106.812H59.8594V108.531H64.9961V112.418H54.6836V114.176H65.5234V115.387H53.1602V111.266H63.4922V109.723H53.1211V108.531H58.3359V106.812H51.207V105.562H67.0273V106.812ZM53.2578 98.8047H64.9766V104.098H53.2578V98.8047ZM63.4531 102.867V100.035H54.7812V102.867H63.4531ZM72.1602 114L77.3359 99.8594H79.1914L84.3672 114H82.5117L81.0957 110.016H75.4121L73.9961 114H72.1602ZM80.5586 108.473L78.3125 102.145H78.1953L75.9492 108.473H80.5586ZM87.5391 114H85.7812V99.8594H87.5391V114ZM101.109 104.781H103.746V98.5898H105.211V114.703H103.746V106.051H101.109V110.914H94.4688V100.25H101.109V104.781ZM99.6641 109.684V101.48H95.9141V109.684H99.6641ZM107.223 98.2188H108.707V115.582H107.223V98.2188ZM124.926 115.621H123.383V98.2188H124.926V115.621ZM111.742 99.8789H120.004V101.168H113.285V109.977C115.089 109.977 116.596 109.938 117.807 109.859C119.018 109.781 120.245 109.632 121.488 109.41L121.645 110.699C120.349 110.927 119.07 111.083 117.807 111.168C116.55 111.253 114.997 111.298 113.148 111.305H111.742V99.8789ZM136.379 99.0781C136.372 101.279 135.718 103.105 134.416 104.557C133.12 106.002 131.138 107.079 128.469 107.789L127.902 106.578C130.708 105.862 132.655 104.723 133.742 103.16L128.078 103.57L127.824 102.34L134.348 102.047C134.562 101.533 134.699 100.953 134.758 100.309H128.703V99.0781H136.379ZM130.539 108.004H141.789V112.164H132.082V114.117H142.375V115.348H130.578V111.012H140.266V109.234H130.539V108.004ZM136.438 102.418H140.246V98.2188H141.789V107.223H140.246V103.688H136.438V102.418ZM163.016 99.9766H160.34V103.336H162.957V104.527H150.242V103.336H152.859V99.9766H150.184V98.7656H163.016V99.9766ZM148.699 105.992H164.52V107.223H148.699V105.992ZM150.613 108.785H162.488V112.555H152.176V114.215H163.016V115.387H150.652V111.441H160.984V109.938H150.613V108.785ZM158.816 103.336V99.9766H154.383V103.336H158.816ZM180.23 110.074H178.766V104.059H176.324V108.57H174.898V98.5703H176.324V102.789H178.766V98.2383H180.23V110.074ZM166.246 99.5859H172.828V104.449H167.77V107.047C168.98 107.047 170.055 107.011 170.992 106.939C171.93 106.861 172.887 106.721 173.863 106.52L174.039 107.75C172.984 107.958 171.965 108.098 170.982 108.17C169.999 108.242 168.811 108.277 167.418 108.277H166.285V103.277H171.363V100.855H166.246V99.5859ZM167.691 114.312C168.72 114.156 169.69 113.857 170.602 113.414C171.513 112.971 172.249 112.428 172.809 111.783C173.375 111.132 173.661 110.439 173.668 109.703V109.254H175.191V109.703C175.191 110.439 175.471 111.132 176.031 111.783C176.591 112.428 177.33 112.971 178.248 113.414C179.166 113.857 180.139 114.156 181.168 114.312L180.543 115.504C179.671 115.361 178.831 115.117 178.023 114.771C177.223 114.433 176.51 114.01 175.885 113.502C175.26 112.994 174.775 112.424 174.43 111.793C174.085 112.424 173.596 112.994 172.965 113.502C172.34 114.01 171.624 114.433 170.816 114.771C170.016 115.117 169.182 115.361 168.316 115.504L167.691 114.312ZM198.09 108.238H182.27V106.988H189.398V104.977H183.812V103.707H186.43V100.055H183.754V98.7852H196.586V100.055H193.91V103.707H196.527V104.977H190.922V106.988H198.09V108.238ZM184.203 109.918H196.156V115.348H184.203V109.918ZM194.652 114.098V111.109H185.727V114.098H194.652ZM192.387 103.707V100.055H187.953V103.707H192.387Z" fill="black"/>
<path d="M91.6231 140.52H96.6631V165.88H91.6231V140.52ZM81.2231 150.24H86.9031V154.48H81.2231V150.24ZM84.6231 141.24H89.5831V162.48H84.6231V141.24ZM65.2231 143.28H82.1831V147.56H65.2231V143.28ZM65.1431 161.84L64.6231 157.56C69.4631 157.56 77.1831 157.52 82.7431 156.8L82.9831 160.68C77.3031 161.76 69.9031 161.84 65.1431 161.84ZM67.5031 146.28H72.3031V158.6H67.5031V146.28ZM75.0231 146.28H79.7831V158.6H75.0231V146.28ZM81.2231 164H85.7431V164.92C85.7431 171.2 80.5831 176.2 71.2631 177.44L69.3831 173.32C77.4631 172.4 81.2231 168.6 81.2231 164.92V164ZM81.9831 164H86.5031V164.92C86.5031 168.6 90.3031 172.4 98.3431 173.32L96.4631 177.44C87.1831 176.2 81.9831 171.2 81.9831 164.92V164ZM100.46 160.16H133.98V164.36H100.46V160.16ZM114.54 155.8H119.86V161.28H114.54V155.8ZM104.22 166.56H129.9V177.56H124.58V170.76H104.22V166.56ZM104.62 153.48H130.42V157.52H104.62V153.48ZM104.62 141.36H130.14V145.4H109.9V155.52H104.62V141.36ZM108.42 147.44H129.3V151.32H108.42V147.44Z" fill="black"/>
<g clip-path="url(#clip0_2457_3257)">
<path d="M73.7605 48.9745C74.0419 48.685 74.3325 48.4093 74.6369 48.1428C75.0981 47.7431 75.5593 47.3388 76.0159 46.9299C79.7012 43.6355 82.5516 39.6612 85.3005 35.5995C86.3383 34.0649 87.3576 32.4614 88.6582 31.1657C90.9552 28.873 93.7594 27.4624 97.0618 27.0397C101.61 26.4608 105.585 27.7105 109.077 30.5638C110.991 32.1306 112.255 34.2395 113.643 36.2566C115.225 38.5585 116.844 40.8604 118.684 42.9555C120.709 45.2666 123.011 47.3342 125.183 49.5212C127.448 51.8048 128.914 54.5386 129.542 57.6721C129.837 59.1424 130.077 60.6724 130.017 62.161C129.86 65.9516 128.647 69.393 126.262 72.4208C124.062 75.2144 121.253 77.1441 117.919 78.1917C115.174 79.0509 112.301 79.2898 109.427 78.5777C108.159 78.2652 106.9 77.9252 105.622 77.6587C102.057 76.9098 98.4132 76.3217 94.7972 77.1212C92.6986 77.5852 90.6277 78.1503 88.5245 78.5914C86.2322 79.0739 83.9168 79.1152 81.6199 78.5593C78.1376 77.7139 75.1673 75.9725 72.7919 73.3122C70.5135 70.7576 68.9776 67.8124 68.544 64.3665C68.4333 63.5027 68.2396 62.6343 68.2442 61.7705C68.2719 57.9616 69.3327 54.4605 71.5881 51.3499C71.5881 51.3499 71.5927 51.3407 71.5974 51.3361C72.1324 50.601 72.7597 49.9302 73.4192 49.3053C73.5714 49.1583 73.6821 49.0526 73.7559 48.9745H73.7605Z" fill="#1EC59C"/>
<path d="M88.2176 26.5235C93.5677 25.3575 96.6092 18.5123 95.0109 11.2342C93.4126 3.95609 87.7797 -0.99878 82.4295 0.167174C77.0794 1.33313 74.0379 8.17838 75.6362 15.4565C77.2345 22.7346 82.8674 27.6894 88.2176 26.5235Z" fill="#1EC59C"/>
<path d="M72.1178 43.9063C76.7567 41.8022 78.1788 34.9799 75.294 28.6683C72.4092 22.3566 66.31 18.9456 61.671 21.0497C57.0321 23.1537 55.6101 29.976 58.4949 36.2877C61.3796 42.5994 67.4788 46.0103 72.1178 43.9063Z" fill="#1EC59C"/>
<path d="M140.513 36.2897C143.398 29.9781 141.975 23.1558 137.337 21.0517C132.698 18.9477 126.598 22.3587 123.714 28.6703C120.829 34.982 122.251 41.8043 126.89 43.9083C131.529 46.0124 137.628 42.6014 140.513 36.2897Z" fill="#1EC59C"/>
<path d="M122.9 15.4601C124.498 8.18205 121.456 1.33679 116.106 0.170837C110.756 -0.995117 105.123 3.95976 103.525 11.2379C101.927 18.516 104.968 25.3612 110.318 26.5272C115.668 27.6931 121.301 22.7382 122.9 15.4601Z" fill="#1EC59C"/>
<path d="M108.957 51.8919H102.961V45.4594C102.961 43.6905 101.509 42.2432 99.7328 42.2432H99.2716C97.4958 42.2432 96.043 43.6905 96.043 45.4594V51.8919H90.047C88.2712 51.8919 86.8184 53.3392 86.8184 55.1081V55.5676C86.8184 57.3365 88.2712 58.7838 90.047 58.7838H96.043V65.2163C96.043 66.9852 97.4958 68.4325 99.2716 68.4325H99.7328C101.509 68.4325 102.961 66.9852 102.961 65.2163V58.7838H108.957C110.733 58.7838 112.186 57.3365 112.186 55.5676V55.1081C112.186 53.3392 110.733 51.8919 108.957 51.8919Z" fill="white"/>
</g>
<defs>
<clipPath id="clip0_2457_3257">
<rect width="85" height="79" fill="white" transform="translate(57)"/>
</clipPath>
</defs>
</svg>
