<svg width="67" height="18" viewBox="0 0 67 18" fill="none" xmlns="http://www.w3.org/2000/svg">
<path d="M7.62109 4.04688C7.61133 7.30859 9.0957 10.5801 12.1133 11.8594L10.6484 13.8516C8.61719 12.9336 7.21094 11.1562 6.40039 8.95898C5.59961 11.3613 4.14453 13.2949 1.97656 14.2812L0.472656 12.2109C3.57812 10.9023 5.0918 7.49414 5.10156 4.04688V1.39062H7.62109V4.04688ZM13.0703 17.8359V0.0234375H15.5898V17.8359H13.0703ZM27.5898 1.05859V3.05078H24.0547C24.0645 5.13086 25.3145 7.26953 28.1953 8.1875L26.9258 10.1211C24.9531 9.47656 23.5957 8.20703 22.8242 6.625C22.0332 8.35352 20.6074 9.74023 18.5469 10.4141L17.2188 8.5C20.1582 7.55273 21.5059 5.26758 21.5352 3.05078H17.9023V1.05859H27.5898ZM19.6211 13.4805V11.5078H31.5938V17.7969H29.0938V13.4805H19.6211ZM29.0938 10.7461V0.0234375H31.5938V4.33984H33.9961V6.41016H31.5938V10.7461H29.0938ZM48.3008 0.0234375V6.97656H50.918V9.02734H48.3008V17.7969H45.8398V0.0234375H48.3008ZM34.1797 4.67188V2.67969H38.2031V0.296875H40.7031V2.67969H44.6289V4.67188H34.1797ZM34.9023 9.90625C34.8926 7.42578 36.8262 5.6582 39.4531 5.66797C42.041 5.6582 43.9844 7.42578 43.9844 9.90625C43.9844 12.3867 42.041 14.1348 39.4531 14.1445C36.8262 14.1348 34.8926 12.3867 34.9023 9.90625ZM37.2852 9.90625C37.2852 11.2832 38.1934 12.1035 39.4531 12.0938C40.6934 12.1035 41.6016 11.2832 41.6016 9.90625C41.6016 8.53906 40.6934 7.69922 39.4531 7.67969C38.1934 7.69922 37.2852 8.53906 37.2852 9.90625ZM66.0039 0.0234375V17.7969H63.4844V0.0234375H66.0039ZM51.1211 12.7578C55.7109 10.5898 57.7324 7.77734 58.1328 3.83203H52.0781V1.87891H60.6719C60.6621 7.26953 58.7773 11.752 52.4297 14.75L51.1211 12.7578Z" fill="white"/>
</svg>
