<svg width="67" height="67" viewBox="0 0 67 67" fill="none" xmlns="http://www.w3.org/2000/svg">
<path d="M12.5618 23.729C17.6642 1.96533 49.3603 1.96532 54.4368 23.729C57.2671 35.86 41.8743 60.0207 33.4993 60.0207C25.1243 60.0207 9.72919 35.8702 12.5618 23.729Z" stroke="#1EC59C" stroke-width="3.5"/>
<path d="M46.0625 27.917C46.0625 34.8551 40.4381 40.4795 33.5 40.4795C26.5619 40.4795 20.9375 34.8551 20.9375 27.917C20.9375 20.9789 26.5619 15.3545 33.5 15.3545C40.4381 15.3545 46.0625 20.9789 46.0625 27.917Z" stroke="#1EC59C" stroke-width="3.5"/>
<path d="M31.0163 22.0146C30.8835 22.3352 30.8835 22.7417 30.8835 23.5547L30.8835 25.2157C30.8835 25.2552 30.8835 25.2749 30.8712 25.2872C30.8589 25.2995 30.8392 25.2995 30.7997 25.2995L29.1387 25.2995C28.3257 25.2995 27.9192 25.2995 27.5986 25.4323C27.1711 25.6094 26.8314 25.949 26.6543 26.3766C26.5215 26.6972 26.5215 27.1037 26.5215 27.9167C26.5215 28.7296 26.5215 29.1361 26.6543 29.4568C26.8314 29.8843 27.1711 30.224 27.5986 30.401C27.9192 30.5339 28.3257 30.5339 29.1387 30.5339L30.7997 30.5339C30.8392 30.5339 30.8589 30.5339 30.8712 30.5461C30.8835 30.5584 30.8835 30.5781 30.8835 30.6176L30.8835 32.2786C30.8835 33.0916 30.8835 33.4981 31.0163 33.8187C31.1934 34.2463 31.533 34.5859 31.9606 34.763C32.2812 34.8958 32.6877 34.8958 33.5007 34.8958C34.3136 34.8958 34.7201 34.8958 35.0408 34.763C35.4683 34.5859 35.8079 34.2463 35.985 33.8187C36.1178 33.4981 36.1178 33.0916 36.1178 32.2786L36.1178 30.6176C36.1178 30.5781 36.1178 30.5584 36.1301 30.5461C36.1424 30.5339 36.1621 30.5339 36.2016 30.5339L37.8626 30.5339C38.6756 30.5339 39.0821 30.5339 39.4027 30.401C39.8303 30.224 40.1699 29.8843 40.347 29.4568C40.4798 29.1361 40.4798 28.7296 40.4798 27.9167C40.4798 27.1037 40.4798 26.6972 40.347 26.3766C40.1699 25.949 39.8303 25.6094 39.4027 25.4323C39.0821 25.2995 38.6756 25.2995 37.8626 25.2995L36.2016 25.2995C36.1621 25.2995 36.1424 25.2995 36.1301 25.2872C36.1178 25.2749 36.1178 25.2552 36.1178 25.2157L36.1178 23.5547C36.1178 22.7417 36.1178 22.3352 35.985 22.0146C35.8079 21.5871 35.4683 21.2474 35.0408 21.0703C34.7201 20.9375 34.3136 20.9375 33.5007 20.9375C32.6877 20.9375 32.2812 20.9375 31.9606 21.0703C31.533 21.2474 31.1934 21.5871 31.0163 22.0146Z" fill="#1EC59C"/>
</svg>
