<svg width="120" height="120" viewBox="0 0 120 120" fill="none" xmlns="http://www.w3.org/2000/svg">
<g id="Group 62">
<g id="&#234;&#176;&#177;&#236;&#150;&#188;&#236;&#167;&#128; &#237;&#148;&#132;&#236;&#130;&#172;">
<g id="Ellipse 15" filter="url(#filter0_d_2322_3199)">
<circle cx="60" cy="58" r="58" fill="#1EC59C"/>
</g>
</g>
<g id="Group 45">
<path id="Vector" d="M61.3189 12.29H58.8223V28.6711H61.3189V12.29Z" fill="#757575"/>
<path id="Vector_2" d="M68.6924 26.9561H51.4554C50.1834 26.9561 49.1523 27.9872 49.1523 29.2591V35.4192C49.1523 36.6911 50.1834 37.7222 51.4554 37.7222H68.6924C69.9644 37.7222 70.9955 36.6911 70.9955 35.4192V29.2591C70.9955 27.9872 69.9644 26.9561 68.6924 26.9561Z" fill="#757575"/>
<path id="Vector_3" d="M53.0539 32.1006H67.0963C84.7919 32.1006 99.1553 46.464 99.1553 64.1596V73.5195C99.1553 83.4653 91.0794 91.5361 81.1387 91.5361H39.0166C29.0708 91.5361 21 83.4602 21 73.5195V64.1596C21 46.464 35.3634 32.1006 53.059 32.1006H53.0539Z" fill="#EDEDED"/>
<path id="Vector_4" d="M86.8579 71.815C85.8337 72.3194 84.6873 72.5844 83.5256 72.5844H36.6243C35.4575 72.5844 34.3111 72.3194 33.292 71.815C30.7801 70.5718 29.3637 68.0649 29.7152 65.4918L29.7407 65.3033C30.9432 56.5905 38.8356 49.8903 48.5063 49.391C52.5978 49.177 56.893 49.07 61.3768 49.0955C64.8874 49.1159 68.2808 49.2178 71.5468 49.3859C81.2583 49.8852 89.2068 56.56 90.4143 65.3033C90.4245 65.3645 90.4296 65.4307 90.4398 65.4918C90.7965 68.0649 89.3749 70.5718 86.863 71.815H86.8579Z" fill="black"/>
<path id="Vector_5" d="M47.7119 68.1709C51.2181 68.1709 54.0605 65.3285 54.0605 61.8223C54.0605 58.316 51.2181 55.4736 47.7119 55.4736C44.2057 55.4736 41.3633 58.316 41.3633 61.8223C41.3633 65.3285 44.2057 68.1709 47.7119 68.1709Z" fill="#EEFDFF"/>
<path id="Vector_6" d="M47.7124 67.1504C50.6558 67.1504 53.042 64.7642 53.042 61.8208C53.042 58.8773 50.6558 56.4912 47.7124 56.4912C44.7689 56.4912 42.3828 58.8773 42.3828 61.8208C42.3828 64.7642 44.7689 67.1504 47.7124 67.1504Z" fill="#1EC59C"/>
<path id="Vector_7" d="M51.1277 60.4398C51.1277 61.5302 50.2411 62.4168 49.1508 62.4168C48.0604 62.4168 47.1738 61.5302 47.1738 60.4398C47.1738 59.3495 48.0604 58.4629 49.1508 58.4629C50.2411 58.4629 51.1277 59.3495 51.1277 60.4398Z" fill="#EEFDFF"/>
<path id="Vector_8" d="M71.6006 68.1709C75.1068 68.1709 77.9492 65.3285 77.9492 61.8223C77.9492 58.316 75.1068 55.4736 71.6006 55.4736C68.0943 55.4736 65.252 58.316 65.252 61.8223C65.252 65.3285 68.0943 68.1709 71.6006 68.1709Z" fill="#EEFDFF"/>
<path id="Vector_9" d="M71.603 67.1504C74.5465 67.1504 76.9326 64.7642 76.9326 61.8208C76.9326 58.8773 74.5465 56.4912 71.603 56.4912C68.6596 56.4912 66.2734 58.8773 66.2734 61.8208C66.2734 64.7642 68.6596 67.1504 71.603 67.1504Z" fill="#1EC59C"/>
<path id="Vector_10" d="M75.0242 60.4398C75.0242 61.5302 74.1376 62.4168 73.0473 62.4168C71.9569 62.4168 71.0703 61.5302 71.0703 60.4398C71.0703 59.3495 71.9569 58.4629 73.0473 58.4629C74.1376 58.4629 75.0242 59.3495 75.0242 60.4398Z" fill="#EEFDFF"/>
<path id="Vector_11" d="M63.2707 11.1998C63.2707 12.9678 61.8389 14.3996 60.0709 14.3996C58.3028 14.3996 56.8711 12.9678 56.8711 11.1998C56.8711 9.43175 58.3028 8 60.0709 8C61.8389 8 63.2707 9.43175 63.2707 11.1998Z" fill="#757575"/>
<path id="Vector_12" d="M62.2999 9.95267C62.2999 10.4928 61.8617 10.9259 61.3267 10.9259C60.7917 10.9259 60.3535 10.4877 60.3535 9.95267C60.3535 9.41768 60.7917 8.97949 61.3267 8.97949C61.8617 8.97949 62.2999 9.41768 62.2999 9.95267Z" fill="white"/>
<path id="Vector_13" d="M87.4525 63.0707C87.0958 63.3203 84.6094 58.2557 77.9347 53.8687C75.5909 52.3249 73.2726 51.2243 73.4101 50.9033C73.5477 50.5772 76.1564 51.1836 78.2455 52.1516C84.8998 55.2393 87.8754 62.7751 87.4474 63.0707H87.4525Z" fill="white"/>
</g>
</g>
<defs>
<filter id="filter0_d_2322_3199" x="0" y="0" width="120" height="120" filterUnits="userSpaceOnUse" color-interpolation-filters="sRGB">
<feFlood flood-opacity="0" result="BackgroundImageFix"/>
<feColorMatrix in="SourceAlpha" type="matrix" values="0 0 0 0 0 0 0 0 0 0 0 0 0 0 0 0 0 0 127 0" result="hardAlpha"/>
<feOffset dy="2"/>
<feGaussianBlur stdDeviation="1"/>
<feComposite in2="hardAlpha" operator="out"/>
<feColorMatrix type="matrix" values="0 0 0 0 0 0 0 0 0 0 0 0 0 0 0 0 0 0 0.1 0"/>
<feBlend mode="normal" in2="BackgroundImageFix" result="effect1_dropShadow_2322_3199"/>
<feBlend mode="normal" in="SourceGraphic" in2="effect1_dropShadow_2322_3199" result="shape"/>
</filter>
</defs>
</svg>
