<svg width="274" height="274" viewBox="0 0 274 274" fill="none" xmlns="http://www.w3.org/2000/svg">
<path d="M162.741 68.5H111.259C107.46 68.5 104.381 71.624 104.381 75.4777V94.1414C104.381 97.995 107.46 101.119 111.259 101.119H162.741C166.539 101.119 169.619 97.995 169.619 94.1414V75.4777C169.619 71.624 166.539 68.5 162.741 68.5Z" fill="#757575"/>
<path d="M116.089 83.7227H157.895C210.578 83.7227 253.341 126.815 253.341 179.906V207.987C253.341 237.826 229.297 262.04 199.702 262.04H74.297C44.6864 262.04 20.6582 237.811 20.6582 207.987V179.906C20.6582 126.815 63.4206 83.7227 116.104 83.7227H116.089Z" fill="#EDEDED"/>
<path d="M216.457 203.185C213.418 204.703 210.017 205.5 206.57 205.5H67.4111C63.9492 205.5 60.5477 204.703 57.5241 203.185C50.0711 199.445 45.8684 191.904 46.9115 184.163L46.9871 183.596C50.5548 157.384 73.9722 137.228 102.666 135.725C114.805 135.082 127.549 134.76 140.853 134.836C151.269 134.898 161.338 135.204 171.028 135.71C199.842 137.212 223.426 157.292 227.009 183.596C227.039 183.78 227.054 183.979 227.085 184.163C228.143 191.904 223.925 199.445 216.472 203.185H216.457Z" fill="black"/>
<path d="M100.575 191.365C111.083 191.365 119.602 183.089 119.602 172.881C119.602 162.672 111.083 154.396 100.575 154.396C90.0659 154.396 81.5469 162.672 81.5469 172.881C81.5469 183.089 90.0659 191.365 100.575 191.365Z" fill="#EEFDFF"/>
<path d="M100.574 189.19C109.282 189.19 116.34 181.888 116.34 172.881C116.34 163.873 109.282 156.571 100.574 156.571C91.8672 156.571 84.8086 163.873 84.8086 172.881C84.8086 181.888 91.8672 189.19 100.574 189.19Z" fill="#1EC59C"/>
<path d="M110.906 169.076C110.906 172.374 108.224 175.056 104.925 175.056C101.627 175.056 98.9453 172.374 98.9453 169.076C98.9453 165.778 101.627 163.096 104.925 163.096C108.224 163.096 110.906 165.778 110.906 169.076Z" fill="#EEFDFF"/>
<path d="M171.25 191.365C181.759 191.365 190.278 183.089 190.278 172.881C190.278 162.672 181.759 154.396 171.25 154.396C160.742 154.396 152.223 162.672 152.223 172.881C152.223 183.089 160.742 191.365 171.25 191.365Z" fill="#EEFDFF"/>
<path d="M171.25 189.19C179.958 189.19 187.016 181.888 187.016 172.881C187.016 163.873 179.958 156.571 171.25 156.571C162.543 156.571 155.484 163.873 155.484 172.881C155.484 181.888 162.543 189.19 171.25 189.19Z" fill="#1EC59C"/>
<path d="M181.579 169.076C181.579 172.374 178.898 175.056 175.599 175.056C172.301 175.056 169.619 172.374 169.619 169.076C169.619 165.778 172.301 163.096 175.599 163.096C178.898 163.096 181.579 165.778 181.579 169.076Z" fill="#EEFDFF"/>
<path d="M146.786 21.7457C146.786 27.1528 142.408 31.5314 137.001 31.5314C131.593 31.5314 127.215 27.1528 127.215 21.7457C127.215 16.3386 131.593 11.96 137.001 11.96C142.408 11.96 146.786 16.3386 146.786 21.7457Z" fill="#757575"/>
<path d="M143.524 17.9409C143.524 19.4495 142.3 20.6592 140.806 20.6592C139.312 20.6592 138.088 19.4352 138.088 17.9409C138.088 16.4466 139.312 15.2227 140.806 15.2227C142.3 15.2227 143.524 16.4466 143.524 17.9409Z" fill="white"/>
<path d="M218.445 176.117C217.398 176.847 210.104 162.031 190.522 149.197C183.645 144.68 176.844 141.461 177.248 140.522C177.651 139.568 185.305 141.342 191.433 144.174C210.956 153.207 219.685 175.252 218.43 176.117H218.445Z" fill="white"/>
</svg>
