<svg width="100" height="27" viewBox="0 0 100 27" fill="none" xmlns="http://www.w3.org/2000/svg">
<path d="M11.4316 6.07031C11.4316 10.9629 13.6582 15.8848 18.1699 17.7891L15.9727 20.7773C12.9258 19.4004 10.8164 16.749 9.61523 13.4531C8.39941 17.042 6.2168 19.9424 2.96484 21.4219L0.708984 18.3164C5.36719 16.3535 7.62305 11.2559 7.65234 6.07031V2.08594H11.4316V6.07031ZM23.3848 0.0351562V26.7539H19.6055V0.0351562H23.3848ZM41.3848 1.58789V4.57617H36.082C36.1113 7.69629 37.957 10.8896 42.293 12.2812L40.3887 15.1816C37.4297 14.2295 35.3936 12.3252 34.2363 9.9375C33.0498 12.5449 30.9258 14.6104 27.8203 15.6211L25.8281 12.75C30.2373 11.3291 32.2441 7.91602 32.3027 4.57617H26.8535V1.58789H41.3848ZM47.3906 0.0351562V6.50977H50.9941V9.61523H47.3906V16.1191H43.6406V0.0351562H47.3906ZM47.3906 17.2617V26.6953H43.6406V20.2207H29.4316V17.2617H47.3906ZM72.4512 0.0351562V10.4648H76.377V13.541H72.4512V26.6953H68.7598V0.0351562H72.4512ZM66.9434 4.01953V7.00781H51.2695V4.01953H57.3047V0.445312H61.0547V4.01953H66.9434ZM59.1797 8.50195C63.0762 8.50195 65.9766 11.1387 65.9766 14.8594C65.9766 18.5801 63.0762 21.2168 59.1797 21.2168C55.2539 21.2168 52.3535 18.5801 52.3535 14.8594C52.3535 11.1387 55.2539 8.50195 59.1797 8.50195ZM59.1797 11.5195C57.3047 11.5488 55.9277 12.8086 55.9277 14.8594C55.9277 16.9395 57.3047 18.1699 59.1797 18.1406C61.0547 18.1699 62.4023 16.9395 62.4023 14.8594C62.4023 12.8086 61.0547 11.5488 59.1797 11.5195ZM99.0059 0.0351562V26.6953H95.2266V0.0351562H99.0059ZM91.0078 2.81836C91.0078 10.9043 88.166 17.6133 78.6445 22.125L76.6816 19.1367C83.5664 15.8848 86.5986 11.666 87.1992 5.74805H78.1172V2.81836H91.0078Z" fill="white"/>
</svg>
